# xmcd
#
# Track frame offsets:
#	150
#	14742
#	32545
#	50830
#	68772
#	78420
#	96580
#	116012
#	131877
#	147665
#	165045
#	183170
#	195732
#	207975
#	223622
#	241920
#	258355
#	277852
#	292802
#
# Disc length: 4070
#
# Revision: 2
# Processed by: cddbd v1.5.1PL0 Copyright (c) Steve Scherf et al.
# Submitted via: CD-Runner 7.0
# Normalized: r1:DSETVAR1,TDELIM( - )
#
DISCID=1b0fe413
DTITLE=Various Artist - The Country Collection 2
DYEAR=1900
DGENRE=
TTITLE0=Carlene Carter - Every Little Thing
TTITLE1=Steinar Albrigtsen - She Belongs To the Rain
TTITLE2=Mary Chapin Carpenter - He Thinks He'll Keep Her
TTITLE3=Collin Raye - Little Rock
TTITLE4=George Strait - The Big One
TTITLE5=Midnight Choir - Talk To Me
TTITLE6=Vince Gill - Whenever You Come Around
TTITLE7=Kathy Mattea - Walking Away A Winner
TTITLE8=Somebody's Darling - If Not In Heaven
TTITLE9=The Mavericks - What A Crying Shame
TTITLE10=Tom Russell - Annette
TTITLE11=Joe Diffie - Third Rock From The Sun
TTITLE12=Ken Mellons - Jukebox Junkie
TTITLE13=Reba McEntire - Why Haven't I Heard From you
TTITLE14=Larry Stewart - Heart Like A Hurricane
TTITLE15=Doug Stone - Little Houses
TTITLE16=Tom Pacheco - Robert and Ramona
TTITLE17=Rick Trevino - She Can't Say I Didn't Cry
TTITLE18=Trisha Yearwood - XXX's and OOO's
EXTD=
EXTT0=
EXTT1=
EXTT2=
EXTT3=
EXTT4=
EXTT5=
EXTT6=
EXTT7=
EXTT8=
EXTT9=
EXTT10=
EXTT11=
EXTT12=
EXTT13=
EXTT14=
EXTT15=
EXTT16=
EXTT17=
EXTT18=
PLAYORDER=
